<svg xmlns:xlink="http://www.w3.org/1999/xlink" xmlns="http://www.w3.org/2000/svg" preserveAspectRatio="xMidYMid meet" width="24"  height="24" ><defs><symbol id="ico-cart" viewBox="0 0 24 24"><path d="M17.5,16c-0.9,0-1.7,0.4-2.2,1H9.7c-0.3-0.4-0.7-0.6-1.2-0.8v-1.3l11.1-0.9c0.5,0,0.8-0.4,0.9-0.9l1-6.9c0-0.3,0-0.6-0.2-0.8C21.1,5.1,20.8,5,20.5,5H7L6.5,2.8C6.3,2.3,5.9,2,5.5,2h-3v1c0,0.6,0.4,1,1,1h1.2l1.8,7.2l1-0.2c0.3-0.1,0.5-0.2,0.6-0.5S8.3,10,8.2,9.8L7.5,7h11.8l-0.7,5.1L7.4,13.1c-0.5,0-0.9,0.5-0.9,1v2.1c-1.2,0.4-2,1.5-2,2.8c0,1.7,1.3,3,3,3s3-1.3,3-3h4c0,1.7,1.3,3,3,3s3-1.3,3-3S19.1,16,17.5,16z M7.5,20c-0.6,0-1-0.4-1-1s0.4-1,1-1s1,0.4,1,1S8,20,7.5,20z M17.5,20c-0.6,0-1-0.4-1-1s0.4-1,1-1s1,0.4,1,1S18,20,17.5,20z"></path></symbol></defs><use xlink:href="#ico-cart"></use></svg>