<svg xmlns:xlink="http://www.w3.org/1999/xlink" xmlns="http://www.w3.org/2000/svg" preserveAspectRatio="xMidYMid meet" width="25"  height="25" ><defs><symbol id="ico-close" viewBox="0 0 24 24"><path d="M10.2,10l0.7-0.7L4.6,3c-0.4-0.4-1-0.4-1.4,0L2.5,3.7L8.8,10C9.2,10.4,9.8,10.4,10.2,10z M13.6,12l7.6-7.6c0.4-0.4,0.4-1,0-1.4l-0.7-0.7L3.2,19.6c-0.4,0.4-0.4,1,0,1.4l0.7,0.7l8.3-8.3l8.3,8.3l0.7-0.7c0.4-0.4,0.4-1,0-1.4L13.6,12z"></path></symbol></defs><use xlink:href="#ico-close" fill="#FFFFFF"></use></svg>