<svg xmlns:xlink="http://www.w3.org/1999/xlink" xmlns="http://www.w3.org/2000/svg" width="106.706" height="35.206" viewBox="0 0 106.706 35.206"><g transform="translate(0 0)"><path d="M357.624,537.155h-5.382v-3.392h4.851a.234.234,0,0,0,.235-.235v-.855a.23.23,0,0,0-.235-.223h-4.851v-3.11h5.118a.233.233,0,0,0,.235-.237v-.855a.231.231,0,0,0-.235-.225H350.9a.231.231,0,0,0-.22.237v9.989a.224.224,0,0,0,.22.219h6.727a.228.228,0,0,0,.235-.219v-.857a.233.233,0,0,0-.235-.237" transform="translate(-333.967 -503.543)"/><path d="M438.867,528.031h-1.093a.233.233,0,0,0-.235.235v9.988a.224.224,0,0,0,.22.218h1.093a.228.228,0,0,0,.235-.218v-9.988a.23.23,0,0,0-.22-.235" transform="translate(-399.514 -503.549)"/><path d="M501.237,528.031h-1.09a.233.233,0,0,0-.235.235v9.988a.225.225,0,0,0,.223.218h1.088a.226.226,0,0,0,.235-.218v-9.988a.228.228,0,0,0-.221-.235" transform="translate(-446.58 -503.549)"/><path d="M461.462,528.031H452.1a.229.229,0,0,0-.221.235v.858a.225.225,0,0,0,.221.221h3.909v8.909a.224.224,0,0,0,.22.218h1.092a.228.228,0,0,0,.235-.218v-8.909h3.908a.23.23,0,0,0,.224-.221v-.858a.233.233,0,0,0-.224-.235" transform="translate(-410.333 -503.549)"/><path d="M516.587,532.5a5.676,5.676,0,1,0,5.664-5.486,5.4,5.4,0,0,0-5.664,5.486m1.564,0a4.111,4.111,0,1,1,4.1,4.4,4.076,4.076,0,0,1-4.1-4.4" transform="translate(-459.163 -502.78)"/><path d="M582.105,528.031H581a.232.232,0,0,0-.238.223V535.9l-5.752-7.574a.641.641,0,0,0-.519-.3h-1.1a.231.231,0,0,0-.222.235v9.988a.226.226,0,0,0,.222.218h1.1a.229.229,0,0,0,.239-.218V530.6l5.753,7.576a.631.631,0,0,0,.516.293h1.1a.228.228,0,0,0,.223-.233v-9.986a.228.228,0,0,0-.223-.223" transform="translate(-501.858 -503.549)"/><path d="M625,531.75c-1.241-.387-2.141-.679-2.141-1.758,0-1.132,1.107-1.634,2.037-1.634a3.315,3.315,0,0,1,1.872.676h.006a.226.226,0,0,0,.113.032.249.249,0,0,0,.158-.059h0l.6-.681h0a.21.21,0,0,0,.063-.145.232.232,0,0,0-.074-.172l0,0a4.75,4.75,0,0,0-2.653-.988c-1.814,0-3.675,1.046-3.675,3.069,0,1.842,1.317,2.431,2.539,2.816,1.369.427,2.55.75,2.55,1.962a1.9,1.9,0,0,1-2.078,1.783,3.464,3.464,0,0,1-2.289-.911.218.218,0,0,0-.279-.017l-.693.636a.222.222,0,0,0,0,.307,4.84,4.84,0,0,0,3.228,1.327,3.347,3.347,0,0,0,3.658-3.333c0-1.932-1.651-2.508-2.946-2.9" transform="translate(-537.954 -502.783)"/><path d="M391.792,529.139h1.6a4.116,4.116,0,1,1,0,8.233h-1.6Zm-1.563,9.117a.225.225,0,0,0,.223.218h3.2a5.225,5.225,0,1,0,0-10.442h-3.186a.232.232,0,0,0-.238.235Z" transform="translate(-363.814 -503.55)"/><path d="M568.648,447.971a.6.6,0,0,1-.61-.609v-1.191c0-.244.074-.391.536-.973l9.487-12.162h-9.027a.593.593,0,0,1-.584-.584v-1.094a.6.6,0,0,1,.584-.609h12.018a.6.6,0,0,1,.607.609v.947c0,.245-.074.388-.533.974l-9.68,12.4h9.607a.6.6,0,0,1,.607.609v1.094a.6.6,0,0,1-.607.584Z" transform="translate(-497.988 -430.141)"/><path d="M635.943,447.971a.6.6,0,0,1-.611-.609v-1.191c0-.244.078-.391.537-.973l9.485-12.162h-9.023a.592.592,0,0,1-.584-.584v-1.094a.6.6,0,0,1,.584-.609h12.018a.6.6,0,0,1,.606.609v.947c0,.245-.073.388-.535.974l-9.685,12.4h9.613a.6.6,0,0,1,.606.609v1.094a.6.6,0,0,1-.606.584Z" transform="translate(-548.768 -430.141)"/><path d="M705.616,431.359a.6.6,0,0,1,.584-.609h1.7a.6.6,0,0,1,.609.609v16a.6.6,0,0,1-.609.611h-1.7a.6.6,0,0,1-.584-.611Z" transform="translate(-601.804 -430.141)"/><path d="M498.26,431.336a.592.592,0,0,1,.584-.581h1.728a.59.59,0,0,1,.582.581v10.852a4.009,4.009,0,0,0,8,0V431.336a.591.591,0,0,1,.582-.581h1.728a.591.591,0,0,1,.584.581v10.852a6.918,6.918,0,0,1-13.793,0Z" transform="translate(-445.334 -430.145)"/><path d="M368.516,428.27a6.663,6.663,0,0,1,6.956,6.373v10.873a.593.593,0,0,1-.584.586h-1.727a.593.593,0,0,1-.584-.586v-5.641h-8v5.641a.6.6,0,0,1-.606.586h-1.7a.593.593,0,0,1-.584-.586V434.643a6.644,6.644,0,0,1,6.835-6.373m4.062,6.373a3.922,3.922,0,0,0-4.062-3.77,3.876,3.876,0,0,0-3.942,3.77v2.945h8Z" transform="translate(-342.272 -428.27)"/><path d="M440.946,430.751c.339,0,.559.2.559.39v1.313a.542.542,0,0,1-.559.582h-5.011v14.353a.591.591,0,0,1-.584.584h-1.724a.591.591,0,0,1-.585-.584V433.036h-4.963a.589.589,0,0,1-.582-.582v-1.122a.591.591,0,0,1,.582-.582Z" transform="translate(-391.936 -430.142)"/><path d="M283.171,430.751a.589.589,0,0,0-.581.582v16.057a.589.589,0,0,0,.581.584h1.7a.6.6,0,0,0,.609-.584V435.2l9.145,12.087a1.434,1.434,0,0,0,1.313.682h1.583a.594.594,0,0,0,.584-.584V431.333a.6.6,0,0,0-.584-.582H295.8a.593.593,0,0,0-.586.582v12.335l-9.388-12.236a1.384,1.384,0,0,0-1.315-.681Z" transform="translate(-282.59 -430.142)"/></g></svg>