<svg xmlns:xlink="http://www.w3.org/1999/xlink" xmlns="http://www.w3.org/2000/svg" width="106.706" height="34.937" viewBox="0 0 106.706 34.937"><g><g transform="translate(29.294 24.539)"><path d="M247.831,435.972h-1.088a.233.233,0,0,0-.235.235v9.943a.226.226,0,0,0,.223.219h1.086a.227.227,0,0,0,.232-.219v-9.943a.228.228,0,0,0-.218-.235" transform="translate(-246.508 -435.972)"/><path d="M321.187,435.972H320.1a.233.233,0,0,0-.235.235v9.943a.226.226,0,0,0,.221.219h1.088a.228.228,0,0,0,.231-.219v-9.943a.23.23,0,0,0-.217-.235" transform="translate(-285.346 -435.972)"/><path d="M262.369,435.972h-9.328a.231.231,0,0,0-.221.235v.851a.227.227,0,0,0,.221.222h3.894v8.87a.225.225,0,0,0,.218.219h1.088a.229.229,0,0,0,.235-.219v-8.87h3.893a.229.229,0,0,0,.221-.222v-.851a.232.232,0,0,0-.221-.235" transform="translate(-249.85 -435.972)"/><path d="M275.49,442.713l2.005-5.082,2.006,5.082Zm6.75,3.438-3.921-9.96a.347.347,0,0,0-.353-.219h-.941a.34.34,0,0,0-.349.219l-3.923,9.96c-.044.134.056.219.176.219h.882c.206,0,.262-.073.338-.247l.826-2.1h5.041l.826,2.1c.076.174.135.247.341.247h.882a.164.164,0,0,0,.174-.219" transform="translate(-260.397 -435.972)"/><path d="M331.305,442.713l2-5.082,2.009,5.082Zm6.75,3.438-3.921-9.96a.347.347,0,0,0-.353-.219h-.944a.346.346,0,0,0-.35.219l-3.923,9.96a.169.169,0,0,0,.18.219h.882c.2,0,.265-.073.338-.247l.826-2.1h5.041l.829,2.1c.074.174.133.247.335.247h.882c.118,0,.223-.085.176-.219" transform="translate(-289.948 -435.972)"/><path d="M305.58,445.064h-5.758v-8.857a.234.234,0,0,0-.238-.235h-1.1a.229.229,0,0,0-.22.235v9.943a.225.225,0,0,0,.22.219h7.1a.231.231,0,0,0,.235-.219V445.3a.234.234,0,0,0-.235-.232" transform="translate(-273.91 -435.972)"/></g><path d="M333.733,402.334a.6.6,0,0,1-.608-.609v-1.191c0-.244.073-.388.535-.972l9.484-12.162h-9.022a.593.593,0,0,1-.583-.585v-1.093a.6.6,0,0,1,.583-.609h12.016a.6.6,0,0,1,.608.609v.949c0,.242-.073.388-.535.972l-9.681,12.405h9.608a.6.6,0,0,1,.608.608v1.093a.6.6,0,0,1-.608.585Z" transform="translate(-263.073 -384.505)"/><path d="M368.834,402.334a.6.6,0,0,1-.609-.609v-1.191c0-.244.073-.388.532-.972l9.49-12.162h-9.027a.6.6,0,0,1-.583-.585v-1.093a.6.6,0,0,1,.583-.609h12.016a.6.6,0,0,1,.608.609v.949c0,.242-.073.388-.535.972l-9.681,12.405h9.608a.6.6,0,0,1,.608.608v1.093a.6.6,0,0,1-.608.585Z" transform="translate(-281.657 -384.505)"/><path d="M404.875,385.722a.6.6,0,0,1,.582-.609h1.7a.6.6,0,0,1,.608.609v16a.6.6,0,0,1-.608.609h-1.7a.6.6,0,0,1-.582-.609v-16Z" transform="translate(-301.062 -384.505)"/><path d="M296.732,385.7a.592.592,0,0,1,.586-.583h1.726a.592.592,0,0,1,.585.583v10.848a4.006,4.006,0,0,0,8,0V385.7a.593.593,0,0,1,.588-.583h1.724a.589.589,0,0,1,.584.583v10.848a6.918,6.918,0,0,1-13.792,0V385.7Z" transform="translate(-243.805 -384.505)"/><path d="M232.337,383.821c3.843,0,6.958,2.822,6.958,6.372v10.872a.592.592,0,0,1-.583.585h-1.729a.594.594,0,0,1-.585-.585v-5.641h-8v5.641a.6.6,0,0,1-.607.585h-1.7a.592.592,0,0,1-.585-.585V390.193a6.645,6.645,0,0,1,6.835-6.372m4.061,6.372a3.917,3.917,0,0,0-4.061-3.768,3.873,3.873,0,0,0-3.941,3.768v2.943h8v-2.943Z" transform="translate(-206.092 -383.821)"/><path d="M273.278,385.113c.341,0,.559.2.559.39v1.312a.542.542,0,0,1-.559.585h-5.011v14.348a.592.592,0,0,1-.582.585h-1.729a.593.593,0,0,1-.583-.585V387.4h-4.964a.593.593,0,0,1-.582-.585V385.7a.591.591,0,0,1,.582-.583Z" transform="translate(-224.265 -384.505)"/><path d="M184.835,385.113a.591.591,0,0,0-.583.583v16.053a.592.592,0,0,0,.583.585h1.706a.6.6,0,0,0,.606-.585V389.564l9.147,12.087a1.428,1.428,0,0,0,1.311.682h1.582a.592.592,0,0,0,.585-.585V385.7a.592.592,0,0,0-.585-.583h-1.726a.589.589,0,0,0-.583.583v12.333l-9.387-12.234a1.385,1.385,0,0,0-1.317-.681Z" transform="translate(-184.252 -384.505)"/></g></svg>