<svg xmlns:xlink="http://www.w3.org/1999/xlink" xmlns="http://www.w3.org/2000/svg" viewBox="0 0 24 24" width="24"  height="24" ><defs><symbol id="ico-user-area-profile-account" viewBox="0 0 24 12"><path id="key_FILL0_wght400_GRAD0_opsz48" d="M8.261,20.035a1.774,1.774,0,1,1,1.252-3.026,1.774,1.774,0,0,1-1.252,3.026Zm0,4.487A6.038,6.038,0,0,1,3.826,22.7,6.038,6.038,0,0,1,2,18.261a6.038,6.038,0,0,1,1.826-4.435A6.038,6.038,0,0,1,8.261,12a6.038,6.038,0,0,1,3.287.887,5.932,5.932,0,0,1,2.217,2.687h9.287L26,18.522l-4.357,3.991-2.3-1.67-2.3,1.67L15.1,20.948h-1.33a5.915,5.915,0,0,1-2.048,2.57A5.763,5.763,0,0,1,8.261,24.522Zm0-1.565a4.421,4.421,0,0,0,2.791-1,4.476,4.476,0,0,0,1.643-2.57H15.67l1.409,1.174,2.3-1.643,2.139,1.617L23.73,18.47l-1.33-1.33H12.7a4.469,4.469,0,0,0-1.565-2.517,4.323,4.323,0,0,0-2.87-1.057,4.528,4.528,0,0,0-3.326,1.37,4.724,4.724,0,0,0,0,6.652A4.528,4.528,0,0,0,8.261,22.957Z" transform="translate(-2 -12)"></path></symbol></defs><use xlink:href="#ico-user-area-profile-account"></use></svg>