<svg xmlns:xlink="http://www.w3.org/1999/xlink" xmlns="http://www.w3.org/2000/svg" preserveAspectRatio="xMidYMid meet" width="24"  height="24" ><defs><symbol id="ico-stores" viewBox="0 0 24 24"><path d="M12.8,21.6L12.8,21.6L12.8,21.6L12.8,21.6z M15,10c0-1.7-1.3-3-3-3s-3,1.3-3,3c0,1.7,1.3,3,3,3S15,11.6,15,10z M12,11c-0.5,0-1-0.4-1-1s0.4-1,1-1s1,0.4,1,1S12.5,11,12,11z M20,10c0-4.4-3.6-8-8-8s-8,3.6-8,8c0,3.6,3.2,7.6,5.5,10h0l0,0c0.4,0.4,0.7,0.7,1,1c0,0,0,0,0,0l0.6,0.6l0-2.2c0-0.3-0.1-0.6-0.4-0.9c-2-2-4.8-5.4-4.8-8.6c0-3.3,2.7-6,6-6s6,2.7,6,6c0,3.2-2.9,6.6-4.8,8.6c-0.2,0.2-0.4,0.6-0.4,0.9l0,2.2l0.6-0.6c0,0,0,0,0,0c0.3-0.3,0.7-0.6,1-1l0,0h0C16.8,17.6,20,13.6,20,10z"></path></symbol></defs><use xlink:href="#ico-stores"></use></svg>