<svg xmlns:xlink="http://www.w3.org/1999/xlink" xmlns="http://www.w3.org/2000/svg" width="106.706" height="18.409" viewBox="0 0 106.706 18.409"><path d="M204.055,292.75v4.573a.779.779,0,0,1-.777.779h-1.553c-.43,0-.819,0-1.4-.782l-8.874-11.579v11.581a.779.779,0,0,1-.772.779h-1.559a.777.777,0,0,1-.772-.782V281.5a.778.778,0,0,1,.772-.779h1.559c.411,0,.7,0,1.293.779l8.981,11.716V281.5a.78.78,0,0,1,.777-.779h1.553a.781.781,0,0,1,.777.779Z" transform="translate(-188.344 -280.223)"/><path d="M603.488,280.885h-1.554a.779.779,0,0,0-.777.777v15.781a.777.777,0,0,0,.777.774h1.554a.775.775,0,0,0,.777-.774V281.662a.777.777,0,0,0-.777-.777" transform="translate(-497.558 -280.347)"/><path d="M412.895,281.662a.778.778,0,0,0-.782-.777h-1.549a.778.778,0,0,0-.779.777V292.22a3.851,3.851,0,0,1-7.685,0V281.662a.774.774,0,0,0-.777-.777h-1.551a.781.781,0,0,0-.779.777V292.22a6.964,6.964,0,0,0,13.9,0Z" transform="translate(-346.128 -280.347)"/><path d="M272.815,278.741a6.75,6.75,0,0,0-6.946,6.535v10.56a.771.771,0,0,0,.772.774H268.2a.777.777,0,0,0,.778-.774v-5.291h7.684v5.291a.774.774,0,0,0,.777.774h1.55a.775.775,0,0,0,.778-.774v-10.56A6.754,6.754,0,0,0,272.815,278.741Zm3.845,9.116h-7.684v-2.581a3.849,3.849,0,0,1,7.684,0Z" transform="translate(-246.413 -278.741)"/><path d="M343.27,280.885H330.312a.673.673,0,0,0-.673.671V282.9a.675.675,0,0,0,.673.674h4.926v13.866a.773.773,0,0,0,.772.774h1.556a.775.775,0,0,0,.777-.774V283.576h4.926a.671.671,0,0,0,.671-.674v-1.346a.668.668,0,0,0-.671-.671" transform="translate(-294.18 -280.347)"/><path d="M480.523,282.9v-1.346a.671.671,0,0,0-.674-.671H468.036a.672.672,0,0,0-.672.671V282.9a.674.674,0,0,0,.672.674h8.686l-9.1,11.458c-.309.4-.672.811-.672,1.181v1.34a.668.668,0,0,0,.672.674h12.17a.671.671,0,0,0,.676-.674v-1.34a.674.674,0,0,0-.676-.672h-9.117L479.849,284c.309-.386.674-.757.674-1.1" transform="translate(-397.03 -280.347)"/><path d="M547.178,282.9v-1.346a.671.671,0,0,0-.669-.671H534.7a.673.673,0,0,0-.676.671V282.9a.675.675,0,0,0,.676.674h8.681l-9.1,11.458c-.309.4-.672.811-.672,1.181v1.34a.671.671,0,0,0,.672.674h12.173a.674.674,0,0,0,.674-.674v-1.34a.676.676,0,0,0-.674-.672h-9.122L546.509,284c.309-.386.669-.757.669-1.1" transform="translate(-446.961 -280.347)"/></svg>