<svg xmlns:xlink="http://www.w3.org/1999/xlink" xmlns="http://www.w3.org/2000/svg" preserveAspectRatio="xMidYMid meet" width="25"  height="25" ><defs><symbol id="ico-burger" viewBox="0 0 24 24"><path d="M2,17v1H16a1,1,0,0,0,1-1V16H3A1,1,0,0,0,2,17Zm3-5V11H3a1,1,0,0,0-1,1v1H4A1,1,0,0,0,5,12Zm14,5v1h2a1,1,0,0,0,1-1V16H20A1,1,0,0,0,19,17ZM8,11a1,1,0,0,0-1,1v1H21a1,1,0,0,0,1-1V11Z"></path><path d="M2,7V8H16a1,1,0,0,0,1-1V6H3A1,1,0,0,0,2,7ZM19,7V8h2a1,1,0,0,0,1-1V6H20A1,1,0,0,0,19,7Z"></path></symbol></defs><use xlink:href="#ico-burger" fill="#FFFFFF"></use></svg>