<svg xmlns:xlink="http://www.w3.org/1999/xlink" xmlns="http://www.w3.org/2000/svg" preserveAspectRatio="xMidYMid meet" width="48"  height="47.551" ><defs><symbol id="ico-brand" viewBox="0 0 48 47.551"><path d="M318.265,138.569H307.356c-4.482,0-6.5-2.278-9.826-7.321l-19.271-28.911v21.926c0,5.416-.076,11.355,4.856,13.111a.913.913,0,0,1,0,1.2h-12.4a.911.911,0,0,1,0-1.2c4.932-1.756,4.856-7.694,4.856-13.111V98.3l-4.856-7.285h10.907c4.483,0,6.5,2.316,9.826,7.321l19.273,28.913V105.325c0-5.415.076-11.356-4.856-13.111a.911.911,0,0,1,0-1.2h12.4a.913.913,0,0,1,0,1.2c-4.932,1.755-4.858,7.7-4.858,13.111v25.961Z" transform="translate(-270.488 -91.019)"></path></symbol></defs><use xlink:href="#ico-brand"></use></svg>